<svg width="330" height="99" viewBox="0 0 330 99" fill="none" xmlns="http://www.w3.org/2000/svg">
<path d="M237.147 62.1777V36.5333C237.147 32.8618 238.096 29.8428 240.014 27.524C241.979 25.1487 244.724 23.9555 248.148 23.9555C251.167 23.9555 253.429 24.8539 254.814 26.7025C256.12 28.4448 256.753 30.8121 256.753 33.7777V62.1777H265.503V32.9777C265.503 27.8963 264.373 23.9722 262.148 21.1681C259.986 18.4436 256.576 17.0666 251.807 17.0666C248.796 17.0666 246.307 17.693 244.317 18.9302C242.304 20.1814 240.667 21.9535 239.399 24.2658L237.147 28.3729V18.1777H228.396V62.1777H237.147ZM243.049 16.8919C245.444 15.4031 248.371 14.6666 251.807 14.6666C257.259 14.6666 261.37 16.3266 264.028 19.6762C266.623 22.9462 267.903 27.3924 267.903 32.9777V64.5777H254.353V33.7777C254.353 31.2915 253.853 29.4218 252.894 28.1418C252.014 26.9682 250.472 26.3555 248.148 26.3555C245.415 26.3555 243.354 27.2511 241.863 29.0537C240.326 30.9126 239.547 33.3899 239.547 36.5333V64.5777H225.996V15.7777H239.547V19.8701C240.577 18.6966 241.745 17.7028 243.049 16.8919ZM179.927 40.1777C179.927 43.7014 180.388 46.881 181.307 49.7196C182.218 52.5389 183.531 54.965 185.244 57.0064C186.939 59.0268 189.018 60.5742 191.492 61.656C193.976 62.7423 196.832 63.2888 200.071 63.2888C203.309 63.2888 206.166 62.7423 208.65 61.656C211.124 60.5742 213.202 59.0268 214.898 57.0064C216.61 54.9663 217.914 52.5421 218.812 49.7246C219.716 46.8845 220.171 43.7031 220.171 40.1777C220.171 36.6518 219.716 33.4625 218.811 30.6069C217.914 27.7762 216.61 25.3537 214.9 23.3299C213.205 21.323 211.125 19.7819 208.65 18.6994C206.166 17.6132 203.309 17.0666 200.071 17.0666C196.832 17.0666 193.976 17.6132 191.492 18.6994C189.016 19.7819 186.937 21.323 185.241 23.3299C183.53 25.3551 182.219 27.7794 181.307 30.612C180.389 33.4661 179.927 36.6536 179.927 40.1777ZM177.527 40.1777C177.527 36.4129 178.024 32.9783 179.022 29.8768C180.027 26.7538 181.489 24.0522 183.408 21.781C185.342 19.4917 187.72 17.7291 190.53 16.5005C193.331 15.2756 196.514 14.6666 200.071 14.6666C203.627 14.6666 206.811 15.2756 209.612 16.5005C212.421 17.7291 214.799 19.4917 216.734 21.781C218.654 24.0536 220.109 26.7569 221.099 29.8818C222.081 32.9818 222.571 36.4147 222.571 40.1777C222.571 43.9412 222.081 47.3672 221.098 50.453C220.108 53.5615 218.654 56.2632 216.736 58.549C214.802 60.8545 212.423 62.6257 209.612 63.855C206.811 65.0798 203.627 65.6888 200.071 65.6888C196.514 65.6888 193.331 65.0798 190.53 63.855C187.719 62.6257 185.34 60.8545 183.405 58.549C181.488 56.2645 180.028 53.5647 179.023 50.4581C178.024 47.3707 177.527 43.943 177.527 40.1777ZM189.157 46.8888V33.4222C189.157 30.2922 190.227 27.7996 192.363 26.0496C194.431 24.3546 197.017 23.511 200.071 23.511C203.121 23.511 205.703 24.3369 207.77 25.9978C209.914 27.7203 210.984 30.2315 210.984 33.4222V46.8888C210.984 50.1083 209.915 52.6344 207.77 54.3576C205.703 56.0186 203.121 56.8444 200.071 56.8444C197.014 56.8444 194.427 55.9919 192.358 54.28C190.226 52.5154 189.157 50.0172 189.157 46.8888ZM191.557 46.8888C191.557 49.3308 192.333 51.1437 193.888 52.431C195.508 53.7709 197.552 54.4444 200.071 54.4444C202.596 54.4444 204.646 53.7887 206.267 52.4867C207.81 51.247 208.584 49.4176 208.584 46.8888V33.4222C208.584 30.9239 207.811 29.1092 206.267 27.8687C204.646 26.5667 202.596 25.911 200.071 25.911C197.55 25.911 195.504 26.5786 193.884 27.9059C192.331 29.1781 191.557 30.9817 191.557 33.4222V46.8888ZM140.466 62.1777V52.8731L142.688 56.4819C144.01 58.6293 145.685 60.2971 147.721 61.5001C149.735 62.6895 152.137 63.2888 154.951 63.2888C157.773 63.2888 160.213 62.7006 162.291 61.5318C164.392 60.3496 166.126 58.7447 167.503 56.706C168.902 54.636 169.941 52.2049 170.62 49.406C171.309 46.5682 171.654 43.4926 171.654 40.1777C171.654 36.9214 171.308 33.852 170.619 30.9677C169.94 28.1264 168.901 25.6828 167.506 23.6303C166.128 21.6052 164.393 20.0065 162.291 18.8236C160.213 17.6548 157.773 17.0666 154.951 17.0666C152.109 17.0666 149.7 17.6658 147.702 18.8536C145.679 20.0565 144.011 21.7249 142.688 23.8735L140.466 27.4823V2.6666H131.715V62.1777H140.466ZM142.866 64.5777H129.315V0.266602H142.866V19.6934C143.935 18.5541 145.139 17.5856 146.476 16.7907C148.863 15.3711 151.695 14.6666 154.951 14.6666C158.17 14.6666 161.015 15.3524 163.467 16.7318C165.894 18.0971 167.905 19.9502 169.49 22.2807C171.056 24.5837 172.21 27.2957 172.954 30.41C173.687 33.4813 174.054 36.7377 174.054 40.1777C174.054 43.6777 173.687 46.9427 172.953 49.9717C172.209 53.0395 171.056 55.7342 169.492 58.0494C167.907 60.3959 165.896 62.2576 163.467 63.6236C161.015 65.003 158.17 65.6888 154.951 65.6888C151.725 65.6888 148.901 64.9844 146.5 63.5665C145.153 62.7703 143.941 61.7998 142.866 60.6576V64.5777ZM140.466 43.6444V36.711C140.466 32.8247 141.349 29.6633 143.144 27.2597C145.017 24.7514 147.977 23.511 151.902 23.511C155.128 23.511 157.723 24.4158 159.618 26.2483C161.52 28.086 162.467 30.5627 162.467 33.5999V46.711C162.467 49.7488 161.512 52.2329 159.597 54.0847C157.688 55.9308 155.1 56.8444 151.902 56.8444C147.977 56.8444 145.017 55.604 143.144 53.0957C141.349 50.6922 140.466 47.5307 140.466 43.6444ZM142.866 43.6444C142.866 47.047 143.609 49.7077 145.067 51.6597C146.446 53.507 148.684 54.4444 151.902 54.4444C154.512 54.4444 156.498 53.7432 157.928 52.3596C159.353 50.9818 160.067 49.1252 160.067 46.711V33.5999C160.067 31.1853 159.36 29.3361 157.95 27.9738C156.536 26.6063 154.542 25.911 151.902 25.911C148.684 25.911 146.446 26.8484 145.067 28.6957C143.609 30.6477 142.866 33.3085 142.866 36.711V43.6444ZM109.242 62.1777V24.6666H123.485V18.1777H100.491V62.1777H109.242ZM111.642 64.5777H98.0907V15.7777H125.885V27.0666H111.642V64.5777ZM61.3602 25.4319C63.0083 24.1449 65.1122 23.511 67.6306 23.511C70.1035 23.511 72.1201 24.1369 73.6328 25.4173C75.213 26.7548 75.9741 28.8464 75.9741 31.5999V35.7248L74.8754 35.8179L62.296 36.8838C57.7501 37.3029 54.3363 38.7703 51.9975 41.2651C49.651 43.7682 48.489 46.719 48.489 50.1777C48.489 52.1587 48.8159 53.9289 49.4649 55.4965C50.1144 57.0653 51.0315 58.4253 52.2212 59.5852C53.4174 60.7515 54.8052 61.6594 56.392 62.3125C57.9705 62.9621 59.7248 63.2888 61.6631 63.2888C64.9486 63.2888 67.5507 62.603 69.4961 61.2574C71.4931 59.8762 73.0977 58.0061 74.3161 55.6301L74.6507 54.9777H76.9615L77.0486 62.1777H92.217V55.7333H84.5507V31.7777C84.5507 26.8945 83.1032 23.2765 80.2248 20.8245C77.2947 18.3286 73.2582 17.0666 68.0662 17.0666C65.4453 17.0666 63.0301 17.3853 60.8181 18.02C58.6324 18.6473 56.7622 19.553 55.2 20.7347C53.6558 21.9029 52.4196 23.3609 51.4846 25.1189C50.7238 26.5495 50.2552 28.1888 50.0831 30.0444H58.8365C59.0771 28.1168 59.919 26.5573 61.3602 25.4319ZM70.8613 63.2313C68.48 64.8784 65.4051 65.6888 61.6631 65.6888C59.4199 65.6888 57.3556 65.3044 55.4785 64.5318C53.6097 63.7627 51.963 62.6854 50.5457 61.3036C49.1218 59.9153 48.0208 58.2827 47.2474 56.4145C46.4734 54.545 46.089 52.4634 46.089 50.1777C46.089 46.1105 47.4823 42.5725 50.2466 39.6237C53.0187 36.6666 56.9806 34.9637 62.0845 34.4931L73.5741 33.5195V31.5999C73.5741 29.4942 73.0575 28.0747 72.0823 27.2492C71.0396 26.3666 69.5716 25.911 67.6306 25.911C65.6189 25.911 64.035 26.3883 62.8373 27.3235C61.7209 28.1953 61.1644 29.4642 61.1644 31.2444V32.4444H47.5858L47.6138 31.217C47.676 28.4889 48.2574 26.076 49.3657 23.992C50.4634 21.9279 51.9278 20.2007 53.7521 18.8207C55.5585 17.4542 57.6956 16.4193 60.1561 15.7132C62.5903 15.0146 65.2278 14.6666 68.0662 14.6666C73.7928 14.6666 78.3807 16.1009 81.7811 18.9976C85.2331 21.9382 86.9507 26.2312 86.9507 31.7777V53.3333H94.617V64.5777H74.6775L74.6178 59.6415C73.5407 61.0467 72.2881 62.2445 70.8613 63.2313ZM57.6754 51.4666L57.6756 47.4476C57.7139 45.0259 58.9926 43.4962 61.2945 43.2492L75.9741 41.9319V45.0666C75.9741 48.2641 75.0668 51.0249 73.2516 53.3033C71.3779 55.655 68.7866 56.8444 65.5834 56.8444C63.4181 56.8444 61.6084 56.4535 60.164 55.648C58.5383 54.7415 57.6754 53.2979 57.6754 51.4666ZM61.5299 45.6375C60.5006 45.7481 60.0951 46.2332 60.0754 47.4666V51.4666C60.0754 52.4205 60.4612 53.0658 61.3329 53.5519C62.3858 54.139 63.7994 54.4444 65.5834 54.4444C68.0717 54.4444 69.9669 53.5745 71.3746 51.8077C72.8407 49.9675 73.5741 47.7358 73.5741 45.0666V44.5569L61.5299 45.6375ZM38.0072 25.593C36.9969 23.6276 35.6861 22.0239 34.0702 20.7703C32.4329 19.5001 30.6009 18.5689 28.5667 17.9739C26.4996 17.3693 24.3335 17.0666 22.065 17.0666C19.0934 17.0666 16.4445 17.596 14.108 18.6494C11.7747 19.7014 9.77798 21.2139 8.10743 23.1956C6.42754 25.1884 5.13027 27.6256 4.21808 30.5166C3.29851 33.431 2.83628 36.7395 2.83628 40.4444C2.83628 43.9182 3.25655 47.0628 4.09336 49.8805C4.91925 52.6614 6.1571 55.034 7.80608 57.0085C9.44865 58.9754 11.4623 60.5112 13.8583 61.6224C16.2472 62.7304 19.0521 63.2888 22.2828 63.2888C24.6569 63.2888 26.8769 62.9522 28.9472 62.2807C30.9976 61.6157 32.8244 60.6215 34.4351 59.2957C36.033 57.9804 37.3303 56.3412 38.3309 54.3683C39.1709 52.7121 39.7587 50.7829 40.09 48.5777H31.3432C30.8821 51.3873 29.9163 53.4515 28.3933 54.7387C26.7205 56.1524 24.4792 56.8444 21.7165 56.8444C18.9038 56.8444 16.5585 55.9128 14.7575 54.0581C12.9563 52.2032 12.0663 49.6722 12.0663 46.5333V33.7777C12.0663 30.3804 13.0124 27.7723 14.9488 26.0391C16.8252 24.3596 19.0707 23.511 21.6294 23.511C24.1483 23.511 26.2871 24.1683 28.0039 25.4948C29.595 26.7243 30.5796 28.7161 31.006 31.4222H39.7557C39.4433 29.1917 38.8588 27.2498 38.0072 25.593ZM0.436279 40.4444C0.436279 36.5047 0.93232 32.9541 1.92931 29.7944C2.93369 26.6113 4.38055 23.893 6.27244 21.6487C8.17367 19.3934 10.4601 17.6615 13.1215 16.4615C15.7797 15.2631 18.7643 14.6666 22.065 14.6666C24.5589 14.6666 26.9518 15.001 29.2405 15.6704C31.5622 16.3495 33.6649 17.4183 35.5413 18.874C37.4391 20.3463 38.974 22.2241 40.1417 24.4958C41.3057 26.7602 42.0207 29.4355 42.2952 32.5157L42.4116 33.8222H28.8609L28.7547 32.7392C28.4937 30.0757 27.7311 28.317 26.5365 27.3939C25.2623 26.4094 23.6406 25.911 21.6294 25.911C19.6581 25.911 17.9834 26.544 16.5494 27.8274C15.1754 29.0572 14.4663 31.0121 14.4663 33.7777V46.5333C14.4663 49.0832 15.1443 51.0114 16.4793 52.3862C17.8145 53.7611 19.5346 54.4444 21.7165 54.4444C23.9486 54.4444 25.642 53.9216 26.8441 52.9056C28.0094 51.9207 28.7879 50.0481 29.1051 47.2429L29.2255 46.1777H42.7743L42.6424 47.4971C42.3379 50.5415 41.6167 53.1954 40.4714 55.4538C39.3231 57.7179 37.8182 59.6195 35.9604 61.1487C34.1155 62.6672 32.0221 63.8064 29.6877 64.5636C27.3731 65.3143 24.9034 65.6888 22.2828 65.6888C18.7184 65.6888 15.5704 65.0621 12.8485 63.7997C10.1336 62.5405 7.8351 60.7875 5.96397 58.5469C4.09925 56.314 2.70912 53.6496 1.79268 50.5638C0.887163 47.5148 0.436279 44.141 0.436279 40.4444Z" fill="#F8E81C"/>
<path d="M183.44 87L195.8 59H203.6L216 87H207.76L198.08 62.88H201.2L191.52 87H183.44ZM190.2 81.56L192.24 75.72H205.92L207.96 81.56H190.2ZM218.245 87V59H232.565C236.245 59 238.992 59.68 240.805 61.04C242.619 62.3733 243.525 64.1333 243.525 66.32C243.525 67.76 243.139 69.0267 242.365 70.12C241.619 71.1867 240.552 72.04 239.165 72.68C237.805 73.2933 236.179 73.6 234.285 73.6L235.085 71.68C237.059 71.68 238.779 71.9867 240.245 72.6C241.712 73.1867 242.845 74.0533 243.645 75.2C244.472 76.32 244.885 77.6933 244.885 79.32C244.885 81.7467 243.899 83.64 241.925 85C239.979 86.3333 237.125 87 233.365 87H218.245ZM226.085 81.28H232.725C234.085 81.28 235.112 81.0533 235.805 80.6C236.525 80.12 236.885 79.4 236.885 78.44C236.885 77.48 236.525 76.7733 235.805 76.32C235.112 75.84 234.085 75.6 232.725 75.6H225.525V70.12H231.525C232.859 70.12 233.859 69.8933 234.525 69.44C235.192 68.9867 235.525 68.3067 235.525 67.4C235.525 66.4933 235.192 65.8267 234.525 65.4C233.859 64.9467 232.859 64.72 231.525 64.72H226.085V81.28ZM245.627 87L257.988 59H265.788L278.188 87H269.948L260.268 62.88H263.388L253.708 87H245.627ZM252.388 81.56L254.428 75.72H268.108L270.148 81.56H252.388ZM280.433 87V59H293.233C295.793 59 297.993 59.4133 299.833 60.24C301.699 61.0667 303.139 62.2667 304.153 63.84C305.166 65.3867 305.673 67.2267 305.673 69.36C305.673 71.4667 305.166 73.2933 304.153 74.84C303.139 76.3867 301.699 77.5867 299.833 78.44C297.993 79.2667 295.793 79.68 293.233 79.68H284.833L288.353 76.24V87H280.433ZM288.353 77.08L284.833 73.44H292.753C294.406 73.44 295.633 73.08 296.433 72.36C297.259 71.64 297.673 70.64 297.673 69.36C297.673 68.0533 297.259 67.04 296.433 66.32C295.633 65.6 294.406 65.24 292.753 65.24H284.833L288.353 61.6V77.08Z" fill="#6D06FF"/>
</svg>
